<?xml version="1.0" encoding="UTF-8"?>
<svg version="1.1" xmlns="http://www.w3.org/2000/svg" width="200" height="200">
<path d="M0 0 C66 0 132 0 200 0 C200 66 200 132 200 200 C134 200 68 200 0 200 C0 134 0 68 0 0 Z M79.75 34 C78.6025482 35.01933983 77.45410186 36.03756117 76.3046875 37.0546875 C75.74362305 37.55838867 75.18255859 38.06208984 74.60449219 38.58105469 C72.42352892 40.50980674 70.16021276 42.32165319 67.875 44.125 C63.48164563 47.60987398 59.13010055 51.14117217 54.80859375 54.71484375 C52.90969384 56.25984577 50.98398746 57.77238371 49.03515625 59.25390625 C48.07480469 59.99511719 47.11445312 60.73632812 46.125 61.5 C45.26132812 62.1496875 44.39765625 62.799375 43.5078125 63.46875 C28.10646242 79.01403793 26.26488391 109.87558137 22.5 130.25 C22.16181747 132.07197403 22.16181747 132.07197403 21.81680298 133.93075562 C21.17048738 137.43657649 20.53556579 140.9442161 19.90625 144.453125 C19.71290573 145.51261856 19.51956146 146.57211212 19.32035828 147.66371155 C19.1456752 148.65801682 18.97099213 149.65232208 18.79101562 150.67675781 C18.63749634 151.5390802 18.48397705 152.40140259 18.32580566 153.28985596 C17.93926141 156.50524082 18 159.76146387 18 163 C28.89 163 39.78 163 51 163 C51.18175781 160.02613281 51.36351562 157.05226562 51.55078125 153.98828125 C51.7363156 151.10207487 51.92640869 148.21620235 52.11694336 145.33032227 C52.2467147 143.32769606 52.3717597 141.32475766 52.49194336 139.3215332 C52.66573107 136.43865976 52.85660263 133.55734425 53.05078125 130.67578125 C53.12598747 129.33644279 53.12598747 129.33644279 53.20271301 127.970047 C53.5398534 123.23433528 53.97937141 119.86463468 57 116 C58.37716999 114.80698646 59.79724818 113.66222297 61.25 112.5625 C69.00907469 105.87756431 72.70851475 96.09050011 75.24609375 86.37109375 C76.1104059 83.65276487 77.33347205 81.32065763 78.6875 78.8125 C80.82423059 74.68796246 81.84890129 71.71611829 81 67 C79.47722993 64.39279682 79.47722993 64.39279682 77 63 C73.80877091 63.2020421 72.35766245 63.67277691 69.98046875 65.84765625 C69.38878906 66.57855469 68.79710937 67.30945313 68.1875 68.0625 C67.28064453 69.16271484 67.28064453 69.16271484 66.35546875 70.28515625 C65.90816406 70.85105469 65.46085937 71.41695312 65 72 C67.88157058 66.10587837 71.80417753 61.82511164 76.265625 57.046875 C80.05901483 52.90516818 83.39402712 48.42550802 86.7734375 43.9453125 C88.22095587 42.03052504 89.71820067 40.15200403 91.26953125 38.3203125 C93.46693925 35.37390087 93.40828636 33.59291994 93 30 C91.91544482 28.71479022 91.91544482 28.71479022 89.328125 28.625 C84.99186424 29.11359276 82.82652429 31.1400929 79.75 34 Z M107 30 C107.15609492 36.49847813 109.64164454 39.76348572 113.8125 44.5625 C114.38911377 45.24924805 114.96572754 45.93599609 115.55981445 46.64355469 C117.35740737 48.77646641 119.17504295 50.89047504 121 53 C121.57975586 53.67208496 122.15951172 54.34416992 122.75683594 55.03662109 C123.31918945 55.68840332 123.88154297 56.34018555 124.4609375 57.01171875 C125.00387451 57.64198975 125.54681152 58.27226074 126.10620117 58.92163086 C127.13710642 60.11361008 128.17348901 61.30088069 129.21606445 62.48266602 C131.57134816 65.17956503 133.61994628 67.6749583 135 71 C134.63648438 70.50628906 134.27296875 70.01257813 133.8984375 69.50390625 C131.38138126 66.29627304 129.75153727 64.28558416 125.875 62.8125 C122.93881229 62.77405295 122.93881229 62.77405295 120.625 64.5 C118.40909874 67.90907886 118.67606765 69.96745754 119 74 C119.99354134 76.53129775 121.00190952 78.79619529 122.25 81.1875 C124.57318094 85.85473399 126.55482609 90.36439011 128.0625 95.375 C130.96367511 104.4685993 135.79547446 110.29078826 143.14453125 116.2734375 C145.92293607 118.8588163 146.13140507 121.47474011 146.37304688 125.08837891 C146.42980591 125.90577545 146.48656494 126.723172 146.54504395 127.56533813 C146.60236694 128.44354218 146.65968994 129.32174622 146.71875 130.2265625 C146.84764283 132.0807301 146.97654949 133.93489674 147.10546875 135.7890625 C147.30416245 138.71671314 147.50130595 141.64446347 147.69775391 144.57226562 C147.88847881 147.39480487 148.08465231 150.21692722 148.28125 153.0390625 C148.338573 153.921315 148.395896 154.8035675 148.45495605 155.71255493 C148.36493818 159.68067092 148.36493818 159.68067092 150 163 C152.44830426 163.08843793 154.86820599 163.11528752 157.31640625 163.09765625 C158.04746078 163.0962413 158.77851532 163.09482635 159.53172302 163.09336853 C161.87535632 163.08775408 164.21889539 163.07519922 166.5625 163.0625 C168.14778508 163.05748686 169.73307166 163.05292363 171.31835938 163.04882812 C175.2122761 163.03777997 179.10612205 163.02050572 183 163 C176.90623655 124.52078017 176.90623655 124.52078017 168 86.625 C167.53823364 84.91449463 167.53823364 84.91449463 167.06713867 83.16943359 C164.20570281 73.28231627 159.93013939 65.88044967 151.8125 59.5 C151.24934082 59.04061035 150.68618164 58.5812207 150.10595703 58.10791016 C148.95879735 57.17384516 147.80747564 56.24486622 146.65185547 55.32128906 C144.20546693 53.36446748 141.79321278 51.36646935 139.375 49.375 C138.0446875 48.2921875 138.0446875 48.2921875 136.6875 47.1875 C133.90898128 44.925915 131.14227833 42.65031774 128.375 40.375 C127.47136719 39.64152344 126.56773438 38.90804687 125.63671875 38.15234375 C123.91515746 36.74703965 122.2085219 35.32319274 120.51953125 33.87890625 C116.04152757 30.0758173 116.04152757 30.0758173 110.5 28.5 C108.06933752 28.74576241 108.06933752 28.74576241 107 30 Z M81 92 C79.60417851 96.15278567 79.53530558 99.03020295 81.4375 103 C82.2109375 103.99 82.2109375 103.99 83 105 C82.071875 105.268125 81.14375 105.53625 80.1875 105.8125 C77.10285093 106.96168299 75.91973581 107.44225111 74 110 C73.45422363 113.97637066 73.81945687 117.99722666 74 122 C74.02078613 122.65307129 74.04157227 123.30614258 74.06298828 123.97900391 C74.12853333 126.00798715 74.21678544 128.03473286 74.3125 130.0625 C74.37050781 131.31160156 74.42851563 132.56070313 74.48828125 133.84765625 C74.75753034 136.95263311 74.75753034 136.95263311 76.35546875 138.93359375 C78.09284638 140.27203868 78.09284638 140.27203868 81 140 C81.02505615 140.69971924 81.0501123 141.39943848 81.07592773 142.12036133 C81.19337867 145.35119418 81.31541636 148.58183902 81.4375 151.8125 C81.47681641 152.91271484 81.51613281 154.01292969 81.55664062 155.14648438 C81.7620464 160.50283502 82.0130355 165.85336243 82.41015625 171.19921875 C82.47468994 172.07795654 82.53922363 172.95669434 82.60571289 173.86206055 C82.82928887 176.20737906 82.82928887 176.20737906 85 178 C87.44012949 178.24287489 87.44012949 178.24287489 90.125 178.125 C91.03507812 178.10695313 91.94515625 178.08890625 92.8828125 178.0703125 C93.58148438 178.04710937 94.28015625 178.02390625 95 178 C95.33 177.34 95.66 176.68 96 176 C96.66 176.66 97.32 177.32 98 178 C101 178.33333333 101 178.33333333 104 178 C104.99 177.01 104.99 177.01 106 176 C106.99 176.99 106.99 176.99 108 178 C111.5 178.33333333 111.5 178.33333333 115 178 C118.15268347 174.84731653 118.12262502 171.55292807 118.31640625 167.234375 C118.37924805 165.90019531 118.37924805 165.90019531 118.44335938 164.5390625 C118.48267578 163.61867188 118.52199219 162.69828125 118.5625 161.75 C118.62727539 160.34621094 118.62727539 160.34621094 118.69335938 158.9140625 C118.7991805 156.60951359 118.90126557 154.30486161 119 152 C120.98 152 122.96 152 125 152 C125.06657075 148.60489167 125.11377909 145.51200592 124.375 142.1875 C124.25125 141.465625 124.1275 140.74375 124 140 C124.66 139.34 125.32 138.68 126 138 C126.33423448 131.45028979 125.69117445 125.16413859 124.75 118.6875 C124.64042969 117.80771484 124.53085938 116.92792969 124.41796875 116.02148438 C123.66616272 110.80272782 123.66616272 110.80272782 120.890625 106.39453125 C120.26671875 105.93433594 119.6428125 105.47414063 119 105 C119.66 104.01 120.32 103.02 121 102 C121.83571542 97.30239966 121.62775298 93.96124676 119 89.9375 C115.65534086 87.77740764 113.83102236 87.32327743 109.93359375 87.56640625 C106.89381354 88.24805393 105.13303956 89.80232287 103 92 C101.47153339 95.05693322 101.76757555 97.62984547 102 101 C103.35885116 103.40083438 103.35885116 103.40083438 105 105 C104.01 105.66 103.02 106.32 102 107 C99.3125 106.125 99.3125 106.125 97 105 C97.515625 104.13375 98.03125 103.2675 98.5625 102.375 C100.21892506 98.48600204 100.35183105 96.97100371 99 93 C96.98967206 90.19772469 95.51872307 88.35283465 92.06640625 87.55078125 C87.24657776 87.28655625 84.17544096 88.15098065 81 92 Z " fill="#000000" transform="translate(0,0)"/>
</svg>
